inDegrees=no
num_controls=7
num_derivatives=13
num_iterations=74
num_multipliers=7
num_parameters=0
num_slacks=7
num_states=26
objective=0.454593
objective_accelerations=0.045499
objective_balance=0.000841
objective_effort=0.036865
objective_height=0.365292
objective_ligament=0.006096
solver_duration=849.913701
status=Solve_Succeeded
success=true
DataType=double
version=3
OpenSimVersion=4.5
endheader
time	/jointset/ground_pelvis/pelvis_tilt/value	/jointset/ground_pelvis/pelvis_tx/value	/jointset/ground_pelvis/pelvis_ty/value	/jointset/hip_r/hip_flexion_r/value	/jointset/hip_r/hip_adduction_r/value	/jointset/hip_r/hip_rotation_r/value	/jointset/back/lumbar_extension/value	/jointset/patellofemoral_r/patellar_flexion_r/value	/jointset/knee_r/knee_flexion_r/value	/jointset/knee_r/knee_adduction_r/value	/jointset/knee_r/knee_rotation_r/value	/jointset/ankle_r/ankle_angle_r/value	/jointset/subtalar_r/subtalar_angle_r/value	/jointset/ground_pelvis/pelvis_tilt/speed	/jointset/ground_pelvis/pelvis_tx/speed	/jointset/ground_pelvis/pelvis_ty/speed	/jointset/hip_r/hip_flexion_r/speed	/jointset/hip_r/hip_adduction_r/speed	/jointset/hip_r/hip_rotation_r/speed	/jointset/back/lumbar_extension/speed	/jointset/patellofemoral_r/patellar_flexion_r/speed	/jointset/knee_r/knee_flexion_r/speed	/jointset/knee_r/knee_adduction_r/speed	/jointset/knee_r/knee_rotation_r/speed	/jointset/ankle_r/ankle_angle_r/speed	/jointset/subtalar_r/subtalar_angle_r/speed	/forceset/tau_hip_flexion_r	/forceset/tau_hip_adduction_r	/forceset/tau_hip_rotation_r	/forceset/tau_knee_flexion_r	/forceset/tau_ankle_angle_r	/forceset/tau_subtalar_angle_r	/forceset/tau_lumbar_extension	lambda_cid13_p0	lambda_cid14_p0	lambda_cid14_p1	lambda_cid14_p2	lambda_cid14_p3	lambda_cid14_p4	lambda_cid14_p5	/jointset/ground_pelvis/pelvis_tilt/accel	/jointset/ground_pelvis/pelvis_tx/accel	/jointset/ground_pelvis/pelvis_ty/accel	/jointset/hip_r/hip_flexion_r/accel	/jointset/hip_r/hip_adduction_r/accel	/jointset/hip_r/hip_rotation_r/accel	/jointset/back/lumbar_extension/accel	/jointset/patellofemoral_r/patellar_flexion_r/accel	/jointset/knee_r/knee_flexion_r/accel	/jointset/knee_r/knee_adduction_r/accel	/jointset/knee_r/knee_rotation_r/accel	/jointset/ankle_r/ankle_angle_r/accel	/jointset/subtalar_r/subtalar_angle_r/accel	gamma_cid13_p0	gamma_cid14_p0	gamma_cid14_p1	gamma_cid14_p2	gamma_cid14_p3	gamma_cid14_p4	gamma_cid14_p5
0	-0.007063344265740974	0.131646009613196	0.933329512065357	0.1934211968871041	-0.2288098790953555	-0.2407621710801533	-0.2903787966825928	0.2311786273363477	0.2311786273363406	0.1338928462278489	0.1728459370654445	0.089344008118978	0.06307966046157103	0	0	0	0	0	0	0	0	0	0	0	0	0	0.09286316221543835	-0.03304918688350213	0.004549498014715603	-0.2165538152040385	0.08525660483459052	-0.09959099793291191	-0.01815006666442719	-29.9264574709151	-19.55580207583999	-41.3093828149969	0.8772978172966471	11.58347697177498	-609.6056187775117	27.84676775972298	-1.592358267437297	-1.938462961708548	-0.8297281537709287	9.588034594241112	-0.3342520363196447	2.54893784062885	-6.301233921147099	9.980485425024339	9.980485425024826	-1.844149663749936	0.2810248780913198	2.481886230842811	0.2690960511422781	3.566718817722897e-08	3.425916596388516e-08	-2.708517755921459e-07	1.554959765856574e-07	-5.70895488547933e-09	1.901738612469102e-07	-1.958475269487387e-07
0.01	-0.00713766995593193	0.1315522122729718	0.9332891569871049	0.1938860902896691	-0.2288253646759937	-0.2406328350988719	-0.2906939891089545	0.2316680481959053	0.2316680481959102	0.1338008538639565	0.172854828824953	0.08946818212905132	0.06309462945207868	-0.01485346772256796	-0.01847104805450424	-0.008051618595302814	0.09237400695994277	-0.003114705663237226	0.0258091014416923	-0.06250857934015173	0.09745928985953362	0.09745928985953557	-0.01823662601032952	0.001717592935825217	0.02497768681453197	0.003014577309576959	0.09483184669125132	-0.05066256277742825	0.004057808789749535	-0.227183332109995	0.1004354326359857	-0.09000242774784226	-0.01797479970233814	-29.93152370841675	-14.15862613022461	-36.25327969614444	0.1320047632821704	5.203328563814484	-611.2698205003896	39.47500159395652	-1.430094292534087	-1.758163871341245	-0.789931119320369	8.971381981768936	-0.3027353740512969	2.588216810526997	-6.14618405004016	9.564911325472668	9.564911325472604	-1.789172471138984	0.1080453200787696	2.527150641372485	0.3207307883262103	5.133992119647796e-08	8.035223986235437e-09	-3.996521507656219e-07	1.83005345507448e-07	3.037904592549969e-08	2.517021224462762e-08	-2.682495304443269e-07
0.02	-0.007360180976939881	0.1312823568233978	0.9331688752415168	0.1952565834087942	-0.2288725284218185	-0.2402471440002474	-0.2916183701506394	0.2331193140658589	0.2331193140658621	0.1335313445595901	0.1728790802776027	0.08984642115419603	0.06314036265917378	-0.02963706615976136	-0.03521162186995956	-0.01598533346719013	0.1811199433158146	-0.006335633035484298	0.0512710234668845	-0.1218377230639	0.1923690020812536	0.1923690020812519	-0.03550338807921762	0.003071938621675728	0.05081300301362164	0.006152843317575611	0.09680053116697877	-0.06827593867138054	0.003566119564878267	-0.2378128490160402	0.1156142604373394	-0.08041385756281763	-0.0177995327402755	-29.9462646534305	-8.68475862482854	-31.20031806895114	-0.5938586003202838	-1.155817109921116	-611.7182039092206	50.87012982853186	-1.578384410362063	-1.592368113899044	-0.8061474090878142	8.862420473426942	-0.3554963781216482	2.479501957328836	-5.665346797866215	9.470569897461656	9.470569897461029	-1.650176875461589	0.2083754280964147	2.653412107754037	0.2938337908264864	6.701265421572696e-08	-1.818871799141428e-08	-5.28452525939098e-07	2.105147144292385e-07	6.64670467364787e-08	-1.39833436757655e-07	-3.406515339399152e-07
0.03	-0.007730124959906949	0.1308513968139798	0.9329695928941315	0.197499100073718	-0.2289526112837112	-0.2396095974824452	-0.2931214117705753	0.2355067833119897	0.2355067833119969	0.1330946251636621	0.1729161303786289	0.09048403672882223	0.06321694255489475	-0.04429828439046585	-0.05092613477599824	-0.02386988661481104	0.2670063936754974	-0.00969496472626496	0.07614455992869504	-0.1784063206580365	0.2846678359376936	0.2846678359376845	-0.05165441586104113	0.004303757674032183	0.0765321817519906	0.009095490994798864	0.09152218587564789	-0.06774155181756879	0.004148975459302454	-0.232092044699431	0.1071259163875449	-0.07706939306386855	-0.01350465757155878	-29.96996024070013	-11.24307936244633	-30.0778683625566	-0.907469748839946	0.2209449359442729	-612.1513282626032	52.28869163208179	-1.401970117901377	-1.552842654794152	-0.7794504916650179	8.395208081544025	-0.3282879125441903	2.477272671389104	-5.59797419986803	9.040974983045405	9.040974983044666	-1.569717643039131	0.07548310131851622	2.504489382996653	0.2842759055510695	7.269114975790733e-08	-3.114541303976891e-08	-5.850388658154124e-07	1.931921556028128e-07	8.009438931665744e-08	-2.334754064158002e-07	-3.480380350515295e-07
0.04	-0.008245077042893274	0.1302649217203331	0.9326914967704562	0.2005891713950817	-0.2290667147321179	-0.2387261169638603	-0.2951792109583919	0.2388035278673387	0.2388035278673434	0.1325019651071471	0.1729644782617118	0.09137350781605805	0.06332090805726377	-0.05863868616017348	-0.06631463871570412	-0.03174808872518756	0.3506308746073861	-0.01313975033655149	0.1004578236217812	-0.2327892366393607	0.3742240639265395	0.3742240639265249	-0.06669152018269985	0.005331495026918385	0.1011841055350873	0.0116299646472451	0.08624384058424865	-0.06720716496378287	0.004731831353816889	-0.2263712403828834	0.09863757233772044	-0.07372492856496009	-0.009209782402868492	-30.0014151291899	-13.73070334117467	-28.95820505564653	-1.203313284153926	1.601911690543203	-611.4749255845287	53.50035662069322	-1.514221118162382	-1.527166320632734	-0.8048772016389224	8.41002658786813	-0.3725871620228677	2.367447403583979	-5.228210475303587	8.922048723942881	8.922048723942625	-1.427392183428537	0.1675590882023961	2.439961116699292	0.2121989858709427	7.816357854798319e-08	-4.382855660504527e-08	-6.401362565103422e-07	1.749452271320938e-07	9.325862554156195e-08	-3.256460012421075e-07	-3.540840103407939e-07
0.05	-0.008902157239661153	0.12952669191416	0.9323344316896109	0.2045042376617406	-0.2292154707712978	-0.2376029461163511	-0.2977690061318298	0.2429825994759154	0.2429825994759222	0.1317640246485202	0.1730225707669454	0.09250502149654088	0.06344871236124613	-0.07271143612015546	-0.08122550456351162	-0.03967751297942865	0.4319468526406472	-0.01658856169246278	0.1240426530094595	-0.2847633077738775	0.4611485904508092	0.4611485904508156	-0.08078179994838339	0.006262205395582671	0.1250225662586254	0.01393334572761069	0.08139893687409137	-0.06189398299035916	0.005129622692987937	-0.2235185100885969	0.09590446701826741	-0.07504459354883115	-0.005037039518194869	-30.039329272376	-14.62789055726554	-29.73430780495374	-1.027174441303526	1.525420772842363	-611.1367062329938	50.84616002259924	-1.343908209004423	-1.457155266070839	-0.7889287416314348	7.927053955986765	-0.3276429778209763	2.333995967042749	-5.121031890890831	8.511388839243976	8.511388839247294	-1.38271379523742	0.05214894738864287	2.341388596178091	0.2396961174462145	7.580808934063812e-08	-5.523855124332614e-08	-6.322723617914257e-07	1.353604655606714e-07	1.001289704056578e-07	-4.013775581352043e-07	-3.229761124937192e-07
0.06	-0.009697986190861981	0.1286425317396648	0.9318976816253599	0.2092193978177058	-0.2293980378951322	-0.2362479279228229	-0.3008663473082885	0.2480176631942431	0.2480176631942506	0.1308886078077553	0.1730892347631313	0.09387203979346055	0.06359960816569719	-0.08638843704360907	-0.09550071238010915	-0.04768508540637204	0.5106496524711766	-0.01990196726619377	0.1468272928244561	-0.3342984372429615	0.5454224858780742	0.5454224858781028	-0.09418679659801518	0.007045793211854555	0.1482850288220392	0.01624826474104114	0.07655403316390684	-0.05658080101695979	0.005527414032246191	-0.2206657797943476	0.09317136169879375	-0.0763642585327388	-0.0008642966335216342	-30.08204677435833	-15.46155608718698	-30.51602514968504	-0.8310218385215138	1.446637031093	-609.8033364221288	48.00374309872522	-1.435071310856407	-1.400034714390966	-0.8205068361793721	7.887390947321788	-0.3455060055868632	2.207409489047673	-4.740422142216849	8.391922504541963	8.391922504541954	-1.29033556021806	0.1381345777239436	2.324761484674176	0.214506572483767	7.31230035860332e-08	-6.659493961099667e-08	-6.217574655814001e-07	9.487726891132478e-08	1.067343093177196e-07	-4.764169450100607e-07	-2.903038410409039e-07
0.07000000000000001	-0.01062927918638421	0.1276188665342587	0.9313802464893094	0.2147093183923571	-0.229613277625133	-0.2346691261218952	-0.3044463551599082	0.2538825367452558	0.2538825367452592	0.1298831031999365	0.1731632134558048	0.09546887000665452	0.06377346488518187	-0.09982219148945076	-0.1091177645664714	-0.05582731169684492	0.586909570014456	-0.02311503490006662	0.1688157917681	-0.3812999596608805	0.6271039128595497	0.6271039128595961	-0.1067994835652459	0.007697721624320563	0.1709897276966123	0.018536715937648	0.07189132960735899	-0.05848956338831565	0.005994553101204673	-0.2192082721044262	0.09044932142315899	-0.07205413872852205	0.003185572847193842	-30.12784062350799	-16.00359383415486	-28.7196265418641	-1.139600226874663	0.9511386316269779	-608.8540033442237	50.72523979600609	-1.290323825343491	-1.325334424202653	-0.8149822023752128	7.431557068942758	-0.3046218000000522	2.177014596095606	-4.619541278120968	7.988991483374878	7.988991483377569	-1.229626438882873	0.02091550257524	2.229639821786643	0.237974929566868	6.914512677610214e-08	-7.355230330864847e-08	-5.845480022690499e-07	6.958252777853607e-08	1.101486947940542e-07	-5.283184003534312e-07	-2.60183661760424e-07
0.08	-0.01169346898915725	0.1264624720162994	0.9307806087549748	0.2209490911246578	-0.22985973096302	-0.2328739504317167	-0.3084842830330178	0.2605507723037603	0.260550772303775	0.128754893487666	0.1732421501385349	0.09729001035518081	0.06397059822389599	-0.112967798491063	-0.1220465748907409	-0.06412560506319799	0.660620084002196	-0.02614468884244738	0.1901020706746585	-0.4258824415404268	0.7060948873780046	0.7060948873780704	-0.1187278174887592	0.008037391219478739	0.1931470558886923	0.02090358858695794	0.0672286260508471	-0.06039832575965892	0.00646169217025193	-0.2177507644144976	0.08772728114753293	-0.067744018924289	0.007235442327934084	-30.17465054370942	-16.48931806739573	-26.9222580339106	-1.438177554655725	0.4408158709763429	-607.0351983110194	53.30121960976437	-1.377441822010228	-1.262386341972595	-0.8517202513553987	7.377510236213911	-0.3088232672885087	2.066965481630648	-4.256614034542143	7.85383201193791	7.853832011938206	-1.153464951474422	0.07568281426239855	2.215287348175308	0.2301908630242317	6.50838440916339e-08	-8.022585896307325e-08	-5.45616308821066e-07	4.526768700165436e-08	1.133572123067935e-07	-5.787270859205768e-07	-2.302281335878368e-07
0.09	-0.0128879289374723	0.1251800142779265	0.9300970365445336	0.2279140076781115	-0.2301359364211564	-0.2308700580784278	-0.312956134896383	0.2679960789888245	0.2679960789888191	0.1275115126528186	0.1733239166453397	0.09932981360131503	0.06419129059719123	-0.1258554076200045	-0.1343498035141049	-0.07262295438662603	0.731944276339448	-0.02908286820862838	0.2105386802917149	-0.4681520775351667	0.7825312343780105	0.7825312343780447	-0.1297929546607535	0.008298590489585721	0.2146957219717495	0.02321942023244623	0.06206619922675834	-0.05890849830912966	0.006976504073316981	-0.2158053403394783	0.08437421020456218	-0.06556966504139196	0.01150674090506247	-30.22040588357708	-17.3218964625767	-26.14665568687474	-1.535625756015299	0.4114111783314343	-605.5001303758856	53.61420210738167	-1.234092693880607	-1.199993009283311	-0.8539764371506794	6.947030359836797	-0.2843360416112123	2.011376293511638	-4.161760341917608	7.47324080452428	7.473240804519325	-1.059807464266425	-0.001242959427864293	2.10698188730699	0.2298812257284281	5.327565419994212e-08	-8.99933004996072e-08	-4.75589459049665e-07	-2.729313425287903e-08	1.128478051251102e-07	-6.153378657890519e-07	-1.560096549070961e-07
